<svg width="32" height="32" viewBox="0 0 32 32" fill="none" xmlns="http://www.w3.org/2000/svg">
<path fill-rule="evenodd" clip-rule="evenodd" d="M10.4285 19.6612C14.8833 19.6612 18.4946 16.0434 18.4946 11.5806C18.4946 7.11783 14.8833 3.5 10.4285 3.5C5.97362 3.5 2.36224 7.11783 2.36224 11.5806C2.36224 12.9766 2.86998 14.4957 3.492 15.6415C3.49187 17.5965 0 18.7283 0 18.7283C2.15677 18.9341 4.9301 18.2138 5.54622 17.9051C6.82598 18.7606 8.7745 19.6612 10.4285 19.6612ZM10.4285 15.6918C12.6949 15.6918 14.5323 13.8511 14.5323 11.5806C14.5323 9.31006 12.6949 7.46943 10.4285 7.46943C8.16194 7.46943 6.32459 9.31006 6.32459 11.5806C6.32459 13.8511 8.16194 15.6918 10.4285 15.6918Z" fill="url(#paint0_linear_753_4465)"/>
<mask id="mask0_753_4465" style="mask-type:luminance" maskUnits="userSpaceOnUse" x="16" y="13" width="16" height="17">
<path d="M16.348 17.0104V14.0489C16.348 13.6702 16.6545 13.3632 17.0325 13.3632H27.234C28.446 13.3632 29.3948 14.4085 29.2861 15.6177C29 18.8035 28.6351 23.2171 28.5706 25.093C28.4884 27.4802 31.0698 29.1059 31.96 29.4146C30.9329 29.1059 28.3027 28.605 26.5163 27.1509C25.5275 26.346 24.8227 25.2545 24.379 24.4664C24.1705 24.0961 23.7854 23.8584 23.361 23.8584H16.8271C16.4491 23.8584 16.1426 23.5513 16.1426 23.1726V20.2798C16.1426 19.9011 16.4491 19.5941 16.8271 19.5941H23.5963C23.8293 19.5941 24.0248 19.4183 24.0499 19.1862L24.1564 18.2025C24.1857 17.9321 23.9742 17.6961 23.7027 17.6961H17.0325C16.6545 17.6961 16.348 17.3891 16.348 17.0104Z" fill="white"/>
</mask>
<g mask="url(#mask0_753_4465)">
<path d="M31.9596 29.4146L31.6973 30.2903L32.2581 28.5506L31.9596 29.4146ZM15.4349 14.0489V17.0103H17.2602V14.0489H15.4349ZM17.032 18.6103H23.7023V16.7818H17.032V18.6103ZM23.2487 18.1039L23.1422 19.0877L24.9569 19.2848L25.0633 18.301L23.2487 18.1039ZM23.5959 18.6798H16.8266V20.5084H23.5959V18.6798ZM15.2295 20.2798V23.1726H17.0548V20.2798H15.2295ZM16.8266 24.7726H23.3606V22.9441H16.8266V24.7726ZM23.5836 24.9155C24.0453 25.7355 24.8176 26.9466 25.9404 27.8605L27.0915 26.4414C26.2365 25.7454 25.5993 24.7735 25.1735 24.0173L23.5836 24.9155ZM25.9404 27.8605C26.9541 28.6857 28.1739 29.2167 29.2273 29.5774C30.2341 29.9222 31.2962 30.1698 31.6973 30.2903L32.2218 28.5389C31.5958 28.3507 30.8293 28.1935 29.8177 27.8471C28.8526 27.5167 27.8641 27.0703 27.0915 26.4414L25.9404 27.8605ZM32.2581 28.5506C31.9527 28.4447 31.2005 28.039 30.5437 27.3849C29.8907 26.7345 29.4533 25.9631 29.4822 25.1246L27.658 25.0615C27.6047 26.6101 28.417 27.8451 29.2567 28.6816C30.0927 29.5143 31.0763 30.0758 31.661 30.2786L32.2581 28.5506ZM29.4822 25.1246C29.5458 23.2791 29.9078 18.893 30.1947 15.6996L28.3768 15.5357C28.0912 18.7139 27.7236 23.155 27.658 25.0615L29.4822 25.1246ZM27.2336 12.4489H17.032V14.2774H27.2336V12.4489ZM30.1947 15.6996C30.3512 13.9582 28.9848 12.4489 27.2336 12.4489V14.2774C27.9063 14.2774 28.4376 14.8587 28.3768 15.5357L30.1947 15.6996ZM23.3606 24.7726C23.4374 24.7726 23.5278 24.8163 23.5836 24.9155L25.1735 24.0173C24.8124 23.3759 24.1326 22.9441 23.3606 22.9441V24.7726ZM15.2295 23.1726C15.2295 24.0563 15.9446 24.7726 16.8266 24.7726V22.9441C16.9526 22.9441 17.0548 23.0463 17.0548 23.1726H15.2295ZM16.8266 18.6798C15.9446 18.6798 15.2295 19.3962 15.2295 20.2798H17.0548C17.0548 20.4061 16.9526 20.5084 16.8266 20.5084V18.6798ZM23.1422 19.0877C23.1673 18.8557 23.3629 18.6798 23.5959 18.6798V20.5084C24.2948 20.5084 24.8815 19.9809 24.9569 19.2848L23.1422 19.0877ZM23.7023 18.6103C23.4308 18.6103 23.2194 18.3743 23.2487 18.1039L25.0633 18.301C25.1511 17.4899 24.5168 16.7818 23.7023 16.7818V18.6103ZM15.4349 17.0103C15.4349 17.894 16.15 18.6103 17.032 18.6103V16.7818C17.158 16.7818 17.2602 16.8841 17.2602 17.0103H15.4349ZM17.2602 14.0489C17.2602 14.1751 17.158 14.2774 17.032 14.2774V12.4489C16.15 12.4489 15.4349 13.1652 15.4349 14.0489H17.2602Z" fill="url(#paint1_linear_753_4465)"/>
</g>
<defs>
<linearGradient id="paint0_linear_753_4465" x1="-6.42071e-08" y1="11.5257" x2="18.4879" y2="11.5257" gradientUnits="userSpaceOnUse">
<stop stop-color="#FF5CA1"/>
<stop offset="1" stop-color="#816DEC"/>
</linearGradient>
<linearGradient id="paint1_linear_753_4465" x1="13.7464" y1="19.7428" x2="31.3151" y2="19.7428" gradientUnits="userSpaceOnUse">
<stop stop-color="#816DEC"/>
<stop offset="1" stop-color="#FF5CA1"/>
</linearGradient>
</defs>
</svg>
