<svg width="48" height="48" viewBox="0 0 48 48" fill="none" xmlns="http://www.w3.org/2000/svg">
<g clip-path="url(#clip0_1762_23987)">
<path d="M23.9999 22.8991C26.2863 22.8991 28.1399 21.0456 28.1399 18.7591C28.1399 16.4727 26.2863 14.6191 23.9999 14.6191C21.7134 14.6191 19.8599 16.4727 19.8599 18.7591C19.8599 21.0456 21.7134 22.8991 23.9999 22.8991Z" fill="#8969AC"/>
<path fill-rule="evenodd" clip-rule="evenodd" d="M23.9999 16.1191C22.5418 16.1191 21.3599 17.3011 21.3599 18.7591C21.3599 20.2172 22.5418 21.3991 23.9999 21.3991C25.4579 21.3991 26.6399 20.2172 26.6399 18.7591C26.6399 17.3011 25.4579 16.1191 23.9999 16.1191ZM18.3599 18.7591C18.3599 15.6443 20.885 13.1191 23.9999 13.1191C27.1147 13.1191 29.6399 15.6443 29.6399 18.7591C29.6399 21.874 27.1147 24.3991 23.9999 24.3991C20.885 24.3991 18.3599 21.874 18.3599 18.7591Z" fill="#8969AC"/>
<path fill-rule="evenodd" clip-rule="evenodd" d="M24 7C14.6112 7 7 14.6112 7 24C7 33.3888 14.6112 41 24 41C33.3888 41 41 33.3888 41 24C41 14.6112 33.3888 7 24 7ZM4 24C4 12.9543 12.9543 4 24 4C35.0457 4 44 12.9543 44 24C44 35.0457 35.0457 44 24 44C12.9543 44 4 35.0457 4 24Z" fill="#8969AC"/>
<path d="M24 39.42C28.0011 39.4189 31.8451 37.8627 34.72 35.08C34.9306 34.8739 35.0767 34.6111 35.1406 34.3235C35.2045 34.0359 35.1835 33.7359 35.08 33.46C34.2232 31.2157 32.7051 29.2845 30.7265 27.9221C28.748 26.5596 26.4023 25.8301 24 25.8301C21.5977 25.8301 19.2521 26.5596 17.2735 27.9221C15.295 29.2845 13.7768 31.2157 12.92 33.46C12.8166 33.7359 12.7955 34.0359 12.8594 34.3235C12.9234 34.6111 13.0695 34.8739 13.28 35.08C16.155 37.8627 19.999 39.4189 24 39.42Z" fill="#8969AC"/>
</g>
<defs>
<clipPath id="clip0_1762_23987">
<rect width="40" height="40" fill="white" transform="translate(4 4)"/>
</clipPath>
</defs>
</svg>
