<svg width="48" height="48" viewBox="0 0 48 48" fill="none" xmlns="http://www.w3.org/2000/svg">
<g clip-path="url(#clip0_5075_24162)">
<path fill-rule="evenodd" clip-rule="evenodd" d="M22.9023 33.4034C22.4805 32.9816 22.4805 32.2978 22.9023 31.8761L30.7786 23.9997L22.9023 16.1234C22.4805 15.7016 22.4805 15.0178 22.9023 14.5961C23.324 14.1743 24.0078 14.1743 24.4296 14.5961L33.0696 23.2361C33.2722 23.4386 33.3859 23.7133 33.3859 23.9997C33.3859 24.2862 33.2722 24.5609 33.0696 24.7634L24.4296 33.4034C24.0078 33.8252 23.324 33.8252 22.9023 33.4034Z" fill="#101112"/>
<path fill-rule="evenodd" clip-rule="evenodd" d="M12.4785 24.0001C12.4785 23.4036 12.962 22.9201 13.5585 22.9201H32.2785C32.875 22.9201 33.3585 23.4036 33.3585 24.0001C33.3585 24.5965 32.875 25.0801 32.2785 25.0801H13.5585C12.962 25.0801 12.4785 24.5965 12.4785 24.0001Z" fill="#101112"/>
</g>
<defs>
<clipPath id="clip0_5075_24162">
<rect width="28.8" height="23.04" fill="white" transform="matrix(0 -1 1 0 12.4785 38.3999)"/>
</clipPath>
</defs>
</svg>
