<svg width="130" height="130" viewBox="0 0 130 130" fill="none" xmlns="http://www.w3.org/2000/svg">
<rect width="130" height="130" rx="12" fill="#ECEEF0"/>
<g clip-path="url(#clip0_6295_10759)">
<path d="M73.3322 57.6891C73.5594 57.6891 73.7815 57.6217 73.9704 57.4955C74.1592 57.3693 74.3065 57.1899 74.3934 56.98C74.4803 56.7701 74.5031 56.5392 74.4588 56.3164C74.4144 56.0936 74.305 55.8889 74.1444 55.7283C73.9838 55.5676 73.7791 55.4582 73.5563 55.4139C73.3335 55.3696 73.1025 55.3923 72.8927 55.4793C72.6828 55.5662 72.5034 55.7134 72.3772 55.9023C72.251 56.0912 72.1836 56.3133 72.1836 56.5405C72.1836 56.8451 72.3046 57.1373 72.52 57.3527C72.7354 57.5681 73.0276 57.6891 73.3322 57.6891Z" fill="#B5B9BD"/>
<path d="M73.3322 55.3916C73.105 55.3916 72.883 55.459 72.6941 55.5852C72.5052 55.7114 72.358 55.8908 72.271 56.1007C72.1841 56.3106 72.1613 56.5415 72.2057 56.7643C72.25 56.9871 72.3594 57.1918 72.52 57.3524C72.6807 57.5131 72.8853 57.6224 73.1081 57.6668C73.3309 57.7111 73.5619 57.6884 73.7718 57.6014C73.9816 57.5145 74.161 57.3673 74.2873 57.1784C74.4135 56.9895 74.4808 56.7674 74.4808 56.5402C74.4808 56.2356 74.3598 55.9434 74.1444 55.728C73.929 55.5126 73.6368 55.3916 73.3322 55.3916Z" fill="#B5B9BD"/>
<path d="M72.5478 61.7365C72.8088 61.7553 73.0708 61.7553 73.3318 61.7365C74.5766 61.732 75.7791 61.2838 76.7232 60.4725C77.6673 59.6611 78.2912 58.5398 78.4829 57.3098C78.6747 56.0799 78.4216 54.8218 77.7692 53.7617C77.1168 52.7015 76.1079 51.9086 74.9235 51.5254C73.7391 51.1422 72.4569 51.1938 71.3071 51.671C70.1574 52.1481 69.2154 53.0195 68.6503 54.1287C68.0853 55.2379 67.9341 56.5122 68.2241 57.7228C68.5141 58.9334 69.2261 60.0009 70.2324 60.7337L66.1119 65L57.5793 56.9962L49.9219 64.6536V50.1592C49.9265 50.0801 49.9612 50.0059 50.0189 49.9517C50.0765 49.8974 50.1527 49.8673 50.2318 49.8674H79.8407C79.918 49.8674 79.9922 49.8982 80.0469 49.9529C80.1016 50.0076 80.1324 50.0818 80.1324 50.1592V69.9409L72.5478 61.7365Z" fill="#B5B9BD"/>
<path d="M78.7652 51.2349V52.7664C78.3597 52.1787 77.8609 51.6614 77.2884 51.2349H78.7652ZM69.3757 51.2349C68.6488 51.7765 68.0409 52.4617 67.5897 53.2479C67.1385 54.0342 66.8537 54.9047 66.7528 55.8056C66.6519 56.7065 66.7372 57.6185 67.0034 58.485C67.2695 59.3516 67.7109 60.1542 68.3 60.8432L66.0575 63.1404L59.4757 56.905L57.5431 55.0818L55.7199 56.905L51.2895 61.3172V51.1802H69.5215L69.3757 51.2349ZM78.911 60.2962V66.4404L75.5564 62.794C76.9177 62.3411 78.0951 61.4581 78.911 60.278V60.2962ZM79.9867 48.4636H50.1773C49.7356 48.4636 49.3117 48.6378 48.9977 48.9484C48.6836 49.2591 48.5048 49.681 48.5 50.1227V67.899L57.616 58.8741L66.1486 67.0238L70.9436 62.0647L80.6796 72.4934L81.5 73.3139V50.1592C81.5 49.7192 81.3252 49.2972 81.0141 48.986C80.7029 48.6749 80.2809 48.5001 79.8409 48.5001L79.9867 48.4636ZM73.4779 60.3874C72.7047 60.4055 71.9436 60.1923 71.2923 59.7751C70.641 59.358 70.1291 58.7558 69.8222 58.0459C69.5154 57.3359 69.4275 56.5505 69.5698 55.7902C69.7122 55.03 70.0783 54.3296 70.6213 53.7788C71.1643 53.2279 71.8594 52.8518 72.6175 52.6986C73.3756 52.5453 74.1622 52.622 74.8765 52.9186C75.5908 53.2153 76.2002 53.7185 76.6267 54.3638C77.0532 55.0091 77.2772 55.767 77.2702 56.5404C77.2702 57.5704 76.861 58.5581 76.1327 59.2864C75.4045 60.0147 74.4167 60.4238 73.3867 60.4238L73.4779 60.3874Z" fill="#B5B9BD"/>
<path d="M50.1769 80.1325C50.0978 80.119 50.027 80.0754 49.9794 80.0108C49.9318 79.9462 49.9111 79.8656 49.9217 79.7861V72.3292L57.725 64.5806L66.3305 72.7485L70.925 67.9899L77.762 75.3739L80.1868 77.7988V79.7861C80.1893 79.8259 80.1836 79.8658 80.1701 79.9033C80.1566 79.9408 80.1355 79.9752 80.1081 80.0042C80.0808 80.0333 80.0478 80.0564 80.0111 80.0722C79.9745 80.088 79.935 80.0961 79.8951 80.096L50.1769 80.1325Z" fill="#B5B9BD"/>
<path d="M57.6893 66.5131L64.3622 72.8032L66.313 74.6264L68.1362 72.6938L70.7981 69.9408L76.6506 76.2673L78.6379 78.2546V78.6557H51.2351V72.8214L57.6893 66.4038V66.5131ZM57.6893 62.5933L48.5732 71.7093V79.7861C48.5732 80.2309 48.75 80.6576 49.0645 80.9721C49.3791 81.2867 49.8057 81.4634 50.2506 81.4634H79.8412C80.2829 81.4586 80.7049 81.2798 81.0155 80.9657C81.3261 80.6517 81.5003 80.2278 81.5003 79.7861V77.2336L78.7108 74.4441L70.9075 66.0026L66.3313 70.8159L57.7257 62.7026L57.6893 62.5933Z" fill="#B5B9BD"/>
</g>
<rect x="42.5858" y="84" width="58" height="4" transform="rotate(-45 42.5858 84)" fill="#B5B9BD" stroke="#ECEEF0" stroke-width="2"/>
<defs>
<clipPath id="clip0_6295_10759">
<rect width="33" height="33" fill="white" transform="translate(48.5 48.5)"/>
</clipPath>
</defs>
</svg>
