<svg width="111" height="24" viewBox="0 0 111 24" fill="none" xmlns="http://www.w3.org/2000/svg">
<path d="M106.93 23.172C106.665 23.172 106.533 23.0419 106.533 22.7816V1.03813C106.533 0.777846 106.665 0.647705 106.93 0.647705H110.103C110.368 0.647705 110.5 0.777846 110.5 1.03813V22.7816C110.5 23.0419 110.368 23.172 110.103 23.172H106.93Z" fill="url(#paint0_radial_748_4744)"/>
<path d="M100.411 4.85226C99.7599 4.85226 99.2107 4.65204 98.7631 4.25161C98.3156 3.85118 98.0918 3.33062 98.0918 2.68992C98.0918 2.04923 98.3156 1.52867 98.7631 1.12824C99.2107 0.727804 99.7599 0.527588 100.411 0.527588C101.062 0.527588 101.611 0.727804 102.059 1.12824C102.506 1.52867 102.73 2.04923 102.73 2.68992C102.73 3.33062 102.506 3.85118 102.059 4.25161C101.611 4.65204 101.062 4.85226 100.411 4.85226ZM98.8241 23.1721C98.5597 23.1721 98.4275 23.0419 98.4275 22.7816V8.00567C98.4275 7.74539 98.5597 7.61524 98.8241 7.61524H101.998C102.262 7.61524 102.394 7.74539 102.394 8.00567V22.7816C102.394 23.0419 102.262 23.1721 101.998 23.1721H98.8241Z" fill="url(#paint1_radial_748_4744)"/>
<path d="M89.1744 23.4724C87.4453 23.4724 85.9907 23.122 84.8109 22.4213C83.6513 21.7005 82.8173 20.6694 82.3087 19.3279C82.207 19.0676 82.2985 18.9075 82.5833 18.8474L85.3601 18.0966C85.5839 18.0365 85.7466 18.1166 85.8483 18.3369C86.2145 18.9575 86.6621 19.398 87.191 19.6583C87.7402 19.8985 88.3505 20.0187 89.0218 20.0187C89.6931 20.0187 90.2424 19.9386 90.6696 19.7784C91.1171 19.6182 91.3409 19.3179 91.3409 18.8774C91.3409 18.5371 91.1578 18.2668 90.7916 18.0666C90.4255 17.8463 89.8254 17.6161 88.9913 17.3758L88.2284 17.1656C86.3366 16.645 84.9838 15.9343 84.1701 15.0333C83.3767 14.1323 82.98 13.0812 82.98 11.8799C82.98 10.9989 83.2343 10.2181 83.7429 9.53734C84.2514 8.83658 84.9533 8.296 85.8483 7.91559C86.7638 7.51516 87.8114 7.31494 88.9913 7.31494C90.517 7.31494 91.8088 7.63529 92.8666 8.27598C93.9244 8.91667 94.6974 9.89773 95.1857 11.2192C95.2874 11.4794 95.206 11.6396 94.9416 11.6997L92.1648 12.5706C91.941 12.6507 91.7681 12.5806 91.646 12.3604C91.3816 11.8799 91.0256 11.4995 90.578 11.2192C90.1508 10.9188 89.6016 10.7687 88.9303 10.7687C88.4217 10.7687 87.9843 10.8588 87.6182 11.039C87.252 11.1991 87.0689 11.4794 87.0689 11.8799C87.0689 12.2403 87.252 12.5406 87.6182 12.7808C88.0047 13.0011 88.6353 13.2213 89.51 13.4416L90.2424 13.6218C92.1749 14.1023 93.5176 14.763 94.2702 15.6039C95.0433 16.4248 95.4298 17.4859 95.4298 18.7873C95.4298 19.7284 95.1552 20.5593 94.6059 21.28C94.077 21.9808 93.3447 22.5214 92.4089 22.9018C91.4731 23.2822 90.395 23.4724 89.1744 23.4724Z" fill="url(#paint2_radial_748_4744)"/>
<path d="M55.1389 23.1721C54.8744 23.1721 54.7422 23.0419 54.7422 22.7817V8.00569C54.7422 7.74541 54.8744 7.61527 55.1389 7.61527H58.0072C58.292 7.61527 58.4344 7.74541 58.4344 8.00569L58.5259 9.8677C59.0752 9.02679 59.7974 8.39611 60.6924 7.97566C61.6079 7.53518 62.5538 7.31494 63.5303 7.31494C64.7305 7.31494 65.7476 7.56521 66.5817 8.06575C67.4361 8.54627 68.0769 9.24703 68.5041 10.168C69.0737 9.22701 69.8467 8.51624 70.8231 8.03572C71.7996 7.5552 72.8269 7.31494 73.9051 7.31494C75.6342 7.31494 76.987 7.82549 77.9635 8.8466C78.9603 9.8677 79.4587 11.2692 79.4587 13.0511V22.7817C79.4587 23.0419 79.3264 23.1721 79.062 23.1721H75.8885C75.624 23.1721 75.4918 23.0419 75.4918 22.7817V14.6429C75.4918 12.1201 74.556 10.8588 72.6845 10.8588C71.7487 10.8588 70.9147 11.2192 70.1823 11.9399C69.45 12.6607 69.0838 13.7619 69.0838 15.2435V22.7817C69.0838 23.0419 68.9516 23.1721 68.6872 23.1721H65.5137C65.2492 23.1721 65.117 23.0419 65.117 22.7817V14.6429C65.117 12.1201 64.1812 10.8588 62.3097 10.8588C61.3739 10.8588 60.5399 11.2192 59.8075 11.9399C59.0752 12.6607 58.709 13.7619 58.709 15.2435V22.7817C58.709 23.0419 58.5768 23.1721 58.3123 23.1721H55.1389Z" fill="url(#paint3_radial_748_4744)"/>
<path d="M43.147 23.4723C41.4586 23.4723 39.9837 23.132 38.7225 22.4512C37.4816 21.7505 36.5153 20.7894 35.8236 19.5681C35.132 18.3468 34.7861 16.9553 34.7861 15.3936C34.7861 13.8119 35.132 12.4204 35.8236 11.2191C36.5153 9.99778 37.4816 9.04675 38.7225 8.36602C39.9837 7.66526 41.4586 7.31488 43.147 7.31488C44.8355 7.31488 46.3001 7.66526 47.541 8.36602C48.8023 9.04675 49.7788 9.99778 50.4704 11.2191C51.1621 12.4204 51.5079 13.8119 51.5079 15.3936C51.5079 16.9553 51.1621 18.3468 50.4704 19.5681C49.7788 20.7894 48.8023 21.7505 47.541 22.4512C46.3001 23.132 44.8355 23.4723 43.147 23.4723ZM43.147 19.9285C44.4083 19.9285 45.4356 19.5081 46.2289 18.6671C47.0223 17.8262 47.419 16.7351 47.419 15.3936C47.419 14.0522 47.0223 12.961 46.2289 12.1201C45.4356 11.2792 44.4083 10.8587 43.147 10.8587C41.8858 10.8587 40.8584 11.2792 40.0651 12.1201C39.2717 12.961 38.875 14.0522 38.875 15.3936C38.875 16.7351 39.2717 17.8262 40.0651 18.6671C40.8584 19.5081 41.8858 19.9285 43.147 19.9285Z" fill="url(#paint4_radial_748_4744)"/>
<path d="M24.105 23.4724C22.4166 23.4724 20.9417 23.132 19.6805 22.4513C18.4396 21.7505 17.4733 20.7895 16.7816 19.5682C16.09 18.3469 15.7441 16.9554 15.7441 15.3937C15.7441 13.812 16.09 12.4205 16.7816 11.2192C17.4733 9.99784 18.4396 9.04681 19.6805 8.36608C20.9417 7.66532 22.4166 7.31494 24.105 7.31494C25.7935 7.31494 27.2581 7.66532 28.4991 8.36608C29.7603 9.04681 30.7368 9.99784 31.4284 11.2192C32.1201 12.4205 32.4659 13.812 32.4659 15.3937C32.4659 16.9554 32.1201 18.3469 31.4284 19.5682C30.7368 20.7895 29.7603 21.7505 28.4991 22.4513C27.2581 23.132 25.7935 23.4724 24.105 23.4724ZM24.105 19.9286C25.3663 19.9286 26.3936 19.5081 27.1869 18.6672C27.9803 17.8263 28.377 16.7351 28.377 15.3937C28.377 14.0522 27.9803 12.961 27.1869 12.1201C26.3936 11.2792 25.3663 10.8588 24.105 10.8588C22.8438 10.8588 21.8165 11.2792 21.0231 12.1201C20.2297 12.961 19.833 14.0522 19.833 15.3937C19.833 16.7351 20.2297 17.8263 21.0231 18.6672C21.8165 19.5081 22.8438 19.9286 24.105 19.9286Z" fill="url(#paint5_radial_748_4744)"/>
<path d="M7.40583 23.4724C5.6767 23.4724 4.22219 23.122 3.04231 22.4213C1.88277 21.7005 1.04872 20.6694 0.54015 19.3279C0.438436 19.0676 0.529979 18.9075 0.814778 18.8474L3.59157 18.0966C3.81534 18.0365 3.97808 18.1166 4.07979 18.3368C4.44596 18.9575 4.8935 19.398 5.42241 19.6583C5.97167 19.8985 6.58195 20.0187 7.25326 20.0187C7.92457 20.0187 8.47383 19.9386 8.90103 19.7784C9.34857 19.6182 9.57234 19.3179 9.57234 18.8774C9.57234 18.5371 9.38925 18.2668 9.02308 18.0666C8.65691 17.8463 8.0568 17.6161 7.22275 17.3758L6.4599 17.1656C4.56802 16.645 3.21522 15.9343 2.40151 15.0333C1.60815 14.1323 1.21146 13.0812 1.21146 11.8799C1.21146 10.9989 1.46575 10.2181 1.97432 9.53734C2.48288 8.83658 3.18471 8.296 4.07979 7.91559C4.99522 7.51516 6.04287 7.31494 7.22275 7.31494C8.74846 7.31494 10.0402 7.63529 11.098 8.27598C12.1559 8.91667 12.9289 9.89773 13.4171 11.2192C13.5188 11.4794 13.4375 11.6396 13.173 11.6997L10.3962 12.5706C10.1725 12.6507 9.99954 12.5806 9.87748 12.3604C9.61302 11.8799 9.25703 11.4995 8.80948 11.2192C8.38229 10.9188 7.83303 10.7687 7.16172 10.7687C6.65315 10.7687 6.21578 10.8588 5.84961 11.039C5.48344 11.1991 5.30036 11.4794 5.30036 11.8799C5.30036 12.2403 5.48344 12.5406 5.84961 12.7808C6.23612 13.0011 6.86675 13.2213 7.74149 13.4416L8.47383 13.6218C10.4064 14.1023 11.749 14.763 12.5017 15.6039C13.2747 16.4248 13.6612 17.4859 13.6612 18.7873C13.6612 19.7284 13.3866 20.5593 12.8374 21.28C12.3084 21.9808 11.5761 22.5214 10.6403 22.9018C9.70457 23.2822 8.6264 23.4724 7.40583 23.4724Z" fill="url(#paint6_radial_748_4744)"/>
<defs>
<radialGradient id="paint0_radial_748_4744" cx="0" cy="0" r="1" gradientUnits="userSpaceOnUse" gradientTransform="translate(56.2336 11.5345) rotate(90) scale(19.8965 56.5783)">
<stop stop-color="#D143C3"/>
<stop offset="0.515" stop-color="#3A95E9"/>
<stop offset="1" stop-color="#8A2AC5"/>
</radialGradient>
<radialGradient id="paint1_radial_748_4744" cx="0" cy="0" r="1" gradientUnits="userSpaceOnUse" gradientTransform="translate(56.2332 11.5345) rotate(90) scale(19.8965 56.5783)">
<stop stop-color="#D143C3"/>
<stop offset="0.515" stop-color="#3A95E9"/>
<stop offset="1" stop-color="#8A2AC5"/>
</radialGradient>
<radialGradient id="paint2_radial_748_4744" cx="0" cy="0" r="1" gradientUnits="userSpaceOnUse" gradientTransform="translate(56.2337 11.5345) rotate(90) scale(19.8965 56.5783)">
<stop stop-color="#D143C3"/>
<stop offset="0.515" stop-color="#3A95E9"/>
<stop offset="1" stop-color="#8A2AC5"/>
</radialGradient>
<radialGradient id="paint3_radial_748_4744" cx="0" cy="0" r="1" gradientUnits="userSpaceOnUse" gradientTransform="translate(56.2332 11.5345) rotate(90) scale(19.8965 56.5783)">
<stop stop-color="#D143C3"/>
<stop offset="0.515" stop-color="#3A95E9"/>
<stop offset="1" stop-color="#8A2AC5"/>
</radialGradient>
<radialGradient id="paint4_radial_748_4744" cx="0" cy="0" r="1" gradientUnits="userSpaceOnUse" gradientTransform="translate(56.2341 11.5344) rotate(90) scale(19.8965 56.5783)">
<stop stop-color="#D143C3"/>
<stop offset="0.515" stop-color="#3A95E9"/>
<stop offset="1" stop-color="#8A2AC5"/>
</radialGradient>
<radialGradient id="paint5_radial_748_4744" cx="0" cy="0" r="1" gradientUnits="userSpaceOnUse" gradientTransform="translate(56.2336 11.5345) rotate(90) scale(19.8965 56.5783)">
<stop stop-color="#D143C3"/>
<stop offset="0.515" stop-color="#3A95E9"/>
<stop offset="1" stop-color="#8A2AC5"/>
</radialGradient>
<radialGradient id="paint6_radial_748_4744" cx="0" cy="0" r="1" gradientUnits="userSpaceOnUse" gradientTransform="translate(56.2335 11.5345) rotate(90) scale(19.8965 56.5783)">
<stop stop-color="#D143C3"/>
<stop offset="0.515" stop-color="#3A95E9"/>
<stop offset="1" stop-color="#8A2AC5"/>
</radialGradient>
</defs>
</svg>
