<svg width="145" height="172" viewBox="0 0 145 172" fill="none" xmlns="http://www.w3.org/2000/svg">
<path fill-rule="evenodd" clip-rule="evenodd" d="M46.9275 69.8186C47.0426 69.835 47.1565 69.8513 47.2693 69.8674C48.2971 70.0141 49.3679 70.1465 50.4625 70.2818C53.2336 70.6244 56.1577 70.9859 58.9245 71.647C70.1784 74.3363 76.9482 81.6584 82.0032 91.5319C84.2755 95.9702 83.8912 101.597 82.3107 106.642C80.7222 111.714 77.8253 116.531 74.621 119.487C63.9879 129.295 52.5337 128.321 39.4696 127.211C38.753 127.15 38.0316 127.088 37.3051 127.028C29.4765 126.382 20.77 125.385 13.8774 122.122C10.4035 120.477 7.33325 118.233 5.06375 115.121C2.78733 111.999 1.37971 108.09 1.10548 103.226C0.945612 100.39 0.753433 93.1531 1.82744 86.4628C2.36278 83.1281 3.23026 79.8101 4.65101 77.2248C6.0769 74.6301 8.19788 72.5502 11.2728 72.2429C12.0971 72.1605 12.8321 72.762 12.9145 73.5863C12.9969 74.4106 12.3954 75.1456 11.5711 75.228C9.86488 75.3985 8.45352 76.5345 7.28016 78.6696C6.10167 80.8141 5.30299 83.7398 4.78951 86.9383C3.76588 93.3148 3.94544 100.303 4.10072 103.057C4.34625 107.412 5.58956 110.75 7.48769 113.353C9.39275 115.966 12.0207 117.924 15.161 119.41C21.4971 122.41 29.6836 123.389 37.5521 124.039C38.1832 124.091 38.8073 124.143 39.4246 124.195C52.7736 125.318 62.9474 126.174 72.5869 117.282C75.3337 114.748 77.9844 110.418 79.4479 105.746C80.9195 101.048 81.0917 96.3345 79.3328 92.8991C74.5197 83.498 68.3413 76.9818 58.2272 74.5649C55.6328 73.9449 52.9753 73.6166 50.2713 73.2826C49.1371 73.1425 47.9947 73.0014 46.8454 72.8373C46.7514 72.8239 46.6569 72.8104 46.5619 72.7968C42.9646 72.2828 38.5309 71.6494 34.2062 71.6341C29.7299 71.6182 25.6385 72.2716 22.7823 74.1744C22.0928 74.6337 21.1616 74.4472 20.7023 73.7578C20.2429 73.0683 20.4295 72.1371 21.1189 71.6778C24.7348 69.2688 29.5708 68.6177 34.2168 68.6341C38.7536 68.6501 43.3657 69.3094 46.9275 69.8186Z" fill="#B5B9BD"/>
<path fill-rule="evenodd" clip-rule="evenodd" d="M25.4551 81.3096C26.2835 81.3096 26.9551 81.9811 26.9551 82.8096V85.9786C26.9551 86.807 26.2835 87.4786 25.4551 87.4786C24.6267 87.4786 23.9551 86.807 23.9551 85.9786V82.8096C23.9551 81.9811 24.6267 81.3096 25.4551 81.3096Z" fill="#B5B9BD"/>
<path fill-rule="evenodd" clip-rule="evenodd" d="M33.1753 82.4805C33.7945 81.9301 34.7426 81.9859 35.293 82.605C36.0454 83.4515 36.6485 84.4085 37.098 85.3075C37.4685 86.0485 37.1682 86.9495 36.4272 87.32C35.6862 87.6905 34.7852 87.3901 34.4148 86.6492C34.0582 85.936 33.5948 85.2101 33.0508 84.5981C32.5004 83.979 32.5562 83.0308 33.1753 82.4805Z" fill="#B5B9BD"/>
<path fill-rule="evenodd" clip-rule="evenodd" d="M36.2818 97.7816C35.709 97.7521 35.0718 97.9175 34.3606 98.5331C33.7342 99.0753 32.7869 99.007 32.2447 98.3806C31.7026 97.7542 31.7709 96.8069 32.3973 96.2647C33.6489 95.1815 35.0324 94.7132 36.4361 94.7856C37.794 94.8555 39.0276 95.4227 40.0634 96.1435C42.1128 97.5696 43.7497 99.8472 44.6164 101.535C44.9949 102.272 44.7042 103.176 43.9673 103.555C43.2303 103.933 42.3262 103.642 41.9477 102.905C41.225 101.498 39.8732 99.666 38.3498 98.6059C37.5992 98.0836 36.9004 97.8134 36.2818 97.7816Z" fill="#B5B9BD"/>
<path fill-rule="evenodd" clip-rule="evenodd" d="M33.9004 25.1551C30.8986 24.4223 27.6639 25.2136 26.0122 27.3425C24.377 29.4501 24.609 31.636 25.5442 34.2919C25.8333 35.1131 26.1429 35.8609 26.4662 36.6419C26.6997 37.2061 26.9405 37.7876 27.1859 38.4266C27.7262 39.8338 28.2188 41.3656 28.2964 42.9205C28.3337 43.6692 27.9654 44.3392 27.7328 44.7186C27.4553 45.1713 27.0955 45.6315 26.7591 46.0382C26.5407 46.3022 26.3012 46.5801 26.085 46.8309C25.9737 46.96 25.8687 47.0818 25.7758 47.191C25.4646 47.5569 25.2869 47.7846 25.2118 47.9079C20.9571 54.8874 20.422 61.2484 19.7169 69.6315C19.6243 70.7316 19.5288 71.8666 19.4216 73.0424C19.3464 73.8674 18.6166 74.4752 17.7916 74.4C16.9666 74.3248 16.3588 73.595 16.434 72.77C16.5391 71.6179 16.6326 70.492 16.7243 69.388C17.4172 61.0496 18.0059 53.9651 22.6502 46.3463C22.8679 45.9893 23.2014 45.5874 23.4906 45.2474C23.6108 45.106 23.7288 44.9692 23.8459 44.8335C24.0471 44.6002 24.2455 44.3702 24.4474 44.1262C24.761 43.747 25.0113 43.418 25.1751 43.1507C25.2379 43.0484 25.2731 42.9786 25.292 42.9375C25.2181 41.9113 24.8783 40.786 24.3853 39.5021C24.2023 39.0257 23.9828 38.4923 23.7539 37.9363C23.3953 37.0654 23.0139 36.1388 22.7145 35.2883C21.6724 32.3288 21.0492 28.8452 23.6419 25.5035C26.2279 22.1704 30.8331 21.3182 34.6119 22.2407C38.4361 23.1742 42.007 26.0932 42.007 30.8692C42.007 31.6977 41.3355 32.3692 40.507 32.3692C39.6786 32.3692 39.007 31.6977 39.007 30.8692C39.007 27.9119 36.8568 25.8768 33.9004 25.1551Z" fill="#B5B9BD"/>
<path fill-rule="evenodd" clip-rule="evenodd" d="M43.9381 29.4233C44.7632 29.3481 45.4929 29.9559 45.5681 30.7809C45.774 33.0392 46.9649 35.6348 48.7782 37.8327C50.5939 40.0334 52.8788 41.6492 55.09 42.162C58.084 42.8564 60.241 42.3907 62.1897 41.2869C64.1733 40.1634 65.9643 38.3762 68.1934 36.1519C68.2786 36.0669 68.3644 35.9812 68.451 35.8949C69.993 34.357 71.43 33.2098 73.1552 32.9567C74.8974 32.7011 76.5559 33.4104 78.3726 34.4458C80.1433 35.4549 81.1013 35.3607 81.8006 35.014C82.6959 34.5702 83.5934 33.5241 84.8167 31.6941C85.277 31.0054 86.2086 30.8203 86.8973 31.2807C87.586 31.7411 87.7711 32.6726 87.3107 33.3613C86.125 35.1351 84.8369 36.8572 83.1331 37.7019C81.2334 38.6437 79.179 38.3583 76.8872 37.0522C75.1158 36.0427 74.2456 35.8289 73.5906 35.925C72.9186 36.0235 72.0897 36.5028 70.5694 38.0191C70.4411 38.147 70.313 38.275 70.1851 38.4028C68.0781 40.5079 66.0175 42.5666 63.6682 43.8972C61.0657 45.3713 58.1392 45.9488 54.4122 45.0844C51.366 44.3779 48.5525 42.2732 46.4641 39.7419C44.3734 37.2078 42.8546 34.0601 42.5805 31.0533C42.5053 30.2282 43.1131 29.4985 43.9381 29.4233Z" fill="#B5B9BD"/>
<path fill-rule="evenodd" clip-rule="evenodd" d="M94.3633 24.9234C93.1104 24.8013 91.7064 25.0319 90.5998 25.4216C89.6275 25.7639 89.1925 26.2663 88.9168 26.9147C88.5884 27.687 88.4717 28.6969 88.3502 30.1337C88.2805 30.9591 87.5547 31.5718 86.7292 31.502C85.9037 31.4322 85.2911 30.7065 85.3609 29.881C85.4743 28.5391 85.6069 27.0324 86.1559 25.7409C86.7577 24.3255 87.8282 23.2169 89.6034 22.5919C91.0442 22.0845 92.8902 21.7657 94.6543 21.9376C96.4103 22.1087 98.3224 22.8005 99.4731 24.5654C99.7387 24.9727 99.9544 25.5492 100.13 26.099C100.32 26.693 100.511 27.414 100.692 28.2085C101.055 29.7987 101.393 31.7485 101.603 33.6868C101.812 35.6115 101.903 37.5949 101.742 39.2265C101.661 40.0383 101.512 40.8375 101.241 41.5222C100.979 42.1858 100.52 42.9454 99.6913 43.354C98.9483 43.7203 98.049 43.4148 97.6827 42.6718C97.3253 41.9467 97.6074 41.0729 98.3117 40.6907C98.3337 40.6622 98.386 40.585 98.4516 40.4189C98.5792 40.0962 98.6897 39.6036 98.7561 38.9317C98.888 37.596 98.8194 35.8453 98.6204 34.0103C98.4228 32.189 98.1045 30.3539 97.7673 28.8756C97.5986 28.1358 97.4289 27.5016 97.2725 27.0123C97.1943 26.7675 97.1233 26.5713 97.0621 26.4229C96.9987 26.2692 96.9623 26.2076 96.9602 26.2041L96.9601 26.2039C96.4959 25.492 95.6241 25.0463 94.3633 24.9234Z" fill="#B5B9BD"/>
<path fill-rule="evenodd" clip-rule="evenodd" d="M102.305 42.8853C103.133 42.8853 103.805 43.5568 103.805 44.3853C103.805 46.5576 104.526 48.817 105.538 51.1961C105.951 52.1699 106.399 53.1316 106.852 54.1056C106.951 54.3168 107.049 54.5285 107.148 54.741C107.694 55.9187 108.236 57.1166 108.68 58.2964C108.873 58.8099 109.067 59.324 109.261 59.8388C115.567 76.5965 122.112 93.988 124.536 112.004C124.813 114.063 125.608 125.4 125.888 136.184C126.029 141.583 126.041 146.901 125.79 150.888C125.664 152.868 125.47 154.593 125.17 155.854C125.023 156.471 124.827 157.084 124.537 157.577C124.276 158.023 123.684 158.781 122.643 158.781C121.814 158.781 121.143 158.11 121.143 157.281C121.143 156.675 121.502 156.153 122.019 155.917C122.083 155.766 122.165 155.522 122.251 155.159C122.491 154.154 122.673 152.636 122.796 150.698C123.039 146.849 123.029 141.638 122.889 136.262C122.61 125.494 121.817 114.292 121.563 112.404C119.185 94.7323 112.747 77.623 106.406 60.7713C106.228 60.2982 106.05 59.8252 105.872 59.3524C105.471 58.2866 104.97 57.1774 104.426 56.0027C104.332 55.7996 104.236 55.5943 104.14 55.3871C103.686 54.4116 103.212 53.3945 102.777 52.3695C101.724 49.8932 100.805 47.1786 100.805 44.3853C100.805 43.5568 101.476 42.8853 102.305 42.8853ZM121.927 156.094C121.927 156.094 121.93 156.089 121.936 156.082C121.93 156.091 121.928 156.094 121.927 156.094Z" fill="#B5B9BD"/>
<path fill-rule="evenodd" clip-rule="evenodd" d="M62.2316 7.06886C60.0357 7.01122 57.5555 7.68531 55.5968 8.51282C53.624 9.34627 52.2843 10.0781 51.2602 11.0186C50.2618 11.9353 49.474 13.1349 48.7749 15.0473C48.4637 15.8986 47.875 18.2309 47.6468 20.5101C47.5328 21.6484 47.5187 22.6833 47.6378 23.4714C47.7547 24.2451 47.9492 24.4614 47.9751 24.4902C47.9785 24.4939 47.979 24.4945 47.9761 24.4927C48.6804 24.929 48.8976 25.8536 48.4613 26.5578C48.025 27.262 47.1005 27.4793 46.3962 27.043C45.2353 26.3238 44.831 24.9761 44.6714 23.9195C44.4988 22.7766 44.5367 21.4598 44.6617 20.2112C44.9115 17.7168 45.5487 15.1349 45.9573 14.0173C46.7762 11.7771 47.7942 10.1284 49.231 8.8089C50.6421 7.5131 52.3668 6.62066 54.4293 5.74932C56.6102 4.82795 59.5333 3.99699 62.3103 4.06989C65.1216 4.1437 68.0315 5.17506 69.577 8.23892C69.9501 8.97857 69.653 9.88064 68.9133 10.2537C68.1737 10.6269 67.2716 10.3297 66.8985 9.59008C66.026 7.8604 64.3932 7.12561 62.2316 7.06886Z" fill="#B5B9BD"/>
<path fill-rule="evenodd" clip-rule="evenodd" d="M75.4164 5.36093C73.2047 6.39903 72.1133 7.7927 72.1133 9.73275C72.1133 10.5612 71.4417 11.2328 70.6133 11.2328C69.7849 11.2328 69.1133 10.5612 69.1133 9.73275C69.1133 6.23947 71.2831 3.98691 74.1418 2.64518C76.9421 1.33086 80.6145 0.761575 84.2966 0.574437C91.6973 0.198308 99.7771 1.34257 102.694 1.88529C106.222 2.54168 109.01 4.17799 110.906 6.5984C112.793 9.00867 113.707 12.0811 113.707 15.4682C113.707 16.2967 113.035 16.9682 112.207 16.9682C111.378 16.9682 110.707 16.2967 110.707 15.4682C110.707 12.6166 109.942 10.2332 108.544 8.44812C107.154 6.67322 105.049 5.3748 102.146 4.83468C99.3457 4.31378 91.5222 3.21108 84.4489 3.57057C80.8939 3.75124 77.6866 4.29542 75.4164 5.36093Z" fill="#B5B9BD"/>
<path fill-rule="evenodd" clip-rule="evenodd" d="M116.487 16.6384C115.514 16.4635 114.689 16.6216 113.938 17.2233C113.291 17.741 112.347 17.6366 111.829 16.9899C111.311 16.3432 111.416 15.3992 112.063 14.8815C113.6 13.6508 115.341 13.3843 117.018 13.6857C118.637 13.9767 120.206 14.7925 121.597 15.7307C123.784 17.2051 125.852 19.2198 127.268 20.5982C127.637 20.9575 127.961 21.2735 128.232 21.5254C133.188 26.1397 138.697 31.8241 140.363 39.1216C140.926 41.5877 141.435 44.4981 141.437 47.3889C141.438 50.2712 140.937 53.2581 139.364 55.7772C138.138 57.7406 136.957 59.8518 136.277 61.8926C136.015 62.6786 135.166 63.1035 134.38 62.8418C133.594 62.58 133.169 61.7306 133.431 60.9447C134.226 58.5554 135.563 56.1993 136.819 54.1882C137.983 52.325 138.438 49.9671 138.437 47.3907C138.435 44.8229 137.98 42.1609 137.439 39.7895C135.999 33.4853 131.167 28.3574 126.187 23.7211C125.844 23.4016 125.465 23.0324 125.054 22.6329C123.639 21.2576 121.854 19.5225 119.92 18.218C118.685 17.3851 117.519 16.8238 116.487 16.6384Z" fill="#B5B9BD"/>
<path fill-rule="evenodd" clip-rule="evenodd" d="M134.816 60.9191C135.53 60.4983 136.45 60.7357 136.87 61.4493C143.094 72.0034 145.001 82.3525 145.001 94.5264C145.001 96.4318 144.845 98.2771 144.671 100.064C144.636 100.42 144.601 100.773 144.565 101.123C144.422 102.55 144.283 103.937 144.206 105.349C144.144 106.507 143.646 107.479 143.299 108.158C143.272 108.212 143.245 108.264 143.219 108.315C142.833 109.077 142.624 109.573 142.624 110.142C142.624 110.971 141.953 111.642 141.124 111.642C140.296 111.642 139.624 110.971 139.624 110.142C139.624 108.786 140.16 107.717 140.542 106.96C140.966 106.123 141.184 105.683 141.211 105.187C141.291 103.699 141.439 102.226 141.583 100.793C141.618 100.45 141.652 100.11 141.685 99.772C141.858 98.0027 142.001 96.2782 142.001 94.5264C142.001 82.7142 140.161 72.9356 134.286 62.9731C133.865 62.2595 134.103 61.3399 134.816 60.9191Z" fill="#B5B9BD"/>
<path fill-rule="evenodd" clip-rule="evenodd" d="M31.5097 135.371C31.9669 135.68 32.3986 136.195 32.4889 136.927C32.5902 137.749 32.0059 138.498 31.1837 138.599C30.5541 138.677 29.9675 138.352 29.6818 137.827C29.6768 137.826 29.6717 137.825 29.6665 137.824C29.3018 137.76 28.7142 137.773 28.0572 137.908C27.4031 138.042 26.8276 138.268 26.4571 138.516C26.2655 138.644 26.1893 138.732 26.1622 138.772C26.1673 140.027 26.3445 141.237 26.5416 142.551C26.5457 142.578 26.5498 142.605 26.5539 142.633C26.7458 143.91 26.9544 145.3 26.9544 146.749C26.9544 147.862 27.1004 148.78 27.2786 149.762C27.2977 149.866 27.3172 149.972 27.337 150.08C27.5004 150.968 27.682 151.955 27.7444 153.093C27.75 153.195 27.7585 153.187 27.7629 153.183C27.7638 153.182 27.7645 153.182 27.765 153.182C27.8581 153.243 28.1025 153.338 28.5929 153.381C29.0593 153.422 29.5965 153.405 30.1685 153.37C30.3015 153.361 30.4436 153.351 30.5892 153.341C31.0038 153.312 31.4472 153.281 31.7924 153.281C32.6208 153.281 33.2924 153.953 33.2924 154.781C33.2924 155.61 32.6208 156.281 31.7924 156.281C31.5586 156.281 31.2816 156.301 30.9199 156.326C30.7512 156.338 30.5642 156.351 30.3545 156.364C29.7554 156.401 29.032 156.431 28.3306 156.37C27.6532 156.31 26.8229 156.153 26.1167 155.689C25.3206 155.165 24.8078 154.332 24.7489 153.257C24.6975 152.32 24.5509 151.52 24.3857 150.619C24.3663 150.514 24.3467 150.406 24.3269 150.298C24.1408 149.273 23.9544 148.139 23.9544 146.749C23.9544 145.53 23.7758 144.335 23.5748 142.996L23.5736 142.988C23.3778 141.683 23.1621 140.246 23.1621 138.717C23.1621 137.409 24.0374 136.524 24.7908 136.021C25.577 135.496 26.5481 135.155 27.4532 134.969C28.3554 134.784 29.3397 134.722 30.1823 134.869C30.5993 134.942 31.0829 135.083 31.5097 135.371ZM26.1489 138.797C26.1486 138.797 26.1497 138.793 26.1533 138.787C26.1511 138.793 26.1493 138.797 26.1489 138.797Z" fill="#B5B9BD"/>
<path fill-rule="evenodd" clip-rule="evenodd" d="M41.8807 134.944C42.6698 135.421 43.1657 136.232 43.1657 137.266V142.987C43.1657 146.521 43.3684 150.018 43.5745 153.55L43.5784 153.616C43.7823 157.112 43.9884 160.643 43.9884 164.194C43.9884 167.124 41.9088 168.962 39.7166 169.598C37.5867 170.216 34.8727 169.843 33.2757 167.859C32.4701 166.859 32.1026 165.687 31.9163 164.576C31.7409 163.53 31.7097 162.419 31.6819 161.431C31.6806 161.383 31.6792 161.335 31.6779 161.287C31.6474 160.215 31.6128 159.286 31.456 158.464C31.3023 157.658 31.0515 157.078 30.6751 156.657C30.1227 156.04 30.1754 155.091 30.7928 154.539C31.4102 153.987 32.3585 154.039 32.9109 154.657C33.7794 155.627 34.1908 156.789 34.403 157.902C34.6122 159 34.6473 160.169 34.6767 161.202L34.6782 161.258C34.7083 162.317 34.7346 163.243 34.875 164.08C35.0154 164.917 35.2513 165.53 35.6123 165.978C36.2347 166.751 37.5429 167.105 38.8803 166.717C40.1554 166.347 40.9884 165.444 40.9884 164.194C40.9884 160.731 40.7866 157.273 40.581 153.749L40.5796 153.724C40.3743 150.206 40.1657 146.622 40.1657 142.987V137.459C40.1649 137.459 40.164 137.459 40.1632 137.458C40.0433 137.431 39.8834 137.409 39.6791 137.398C39.2624 137.376 38.7776 137.403 38.2494 137.445C38.1591 137.452 38.0644 137.46 37.9672 137.468C37.5541 137.502 37.0951 137.54 36.7293 137.54C35.9009 137.54 35.2293 136.868 35.2293 136.04C35.2293 135.211 35.9009 134.54 36.7293 134.54C36.9593 134.54 37.2498 134.516 37.6443 134.484C37.7588 134.474 37.882 134.464 38.0152 134.454C38.5529 134.412 39.2086 134.369 39.8388 134.403C40.4364 134.435 41.2142 134.542 41.8807 134.944Z" fill="#B5B9BD"/>
<path fill-rule="evenodd" clip-rule="evenodd" d="M32.5859 128.845C33.4144 128.845 34.0859 129.517 34.0859 130.345V134.703C34.0859 135.531 33.4144 136.203 32.5859 136.203C31.7575 136.203 31.0859 135.531 31.0859 134.703V130.345C31.0859 129.517 31.7575 128.845 32.5859 128.845Z" fill="#B5B9BD"/>
<path fill-rule="evenodd" clip-rule="evenodd" d="M88.7352 135.589C88.7943 135.591 88.839 135.593 88.864 135.593H90.2266C90.798 135.593 91.3335 135.705 91.7272 135.792C91.7811 135.804 91.8325 135.815 91.8817 135.826C92.2378 135.905 92.479 135.958 92.7182 135.98C93.5433 136.053 94.1526 136.782 94.0791 137.607C94.0055 138.432 93.277 139.041 92.4519 138.968C92.0025 138.928 91.5538 138.827 91.2188 138.752C91.1711 138.742 91.1256 138.731 91.0828 138.722C90.6896 138.635 90.4387 138.593 90.2266 138.593H89.0622C89.0206 138.966 89.014 139.386 89.0257 139.865C89.0306 140.065 89.04 140.299 89.05 140.546C89.0669 140.965 89.0852 141.419 89.0852 141.804C89.0852 145.094 89.0405 148.395 88.8951 151.699C88.7124 155.852 88.7445 160.005 88.7769 164.196C88.7877 165.595 88.7986 166.999 88.8015 168.408C89.0404 168.44 89.3499 168.459 89.7189 168.457C90.2795 168.455 90.8773 168.408 91.3843 168.343C91.6367 168.31 91.8558 168.274 92.0277 168.239C92.037 168.238 92.0461 168.236 92.055 168.234C92.0611 168.171 92.067 168.093 92.0736 167.994C92.0748 167.976 92.076 167.958 92.0772 167.938C92.089 167.756 92.106 167.493 92.1469 167.239C92.2482 166.608 92.3068 165.979 92.3706 165.294C92.3853 165.135 92.4004 164.973 92.4163 164.808C92.4984 163.956 92.6022 163.03 92.8231 162.093C92.9603 161.511 93.198 160.926 93.3802 160.479C93.4411 160.329 93.4958 160.194 93.5384 160.08C93.6557 159.767 93.7264 159.28 93.7264 158.817C93.7264 158.642 93.7289 158.261 93.7842 157.87C93.8117 157.675 93.8587 157.428 93.9481 157.178C94.0276 156.956 94.1989 156.563 94.5748 156.252C94.7529 156.105 94.9303 156.015 95.0446 155.964C95.1654 155.91 95.2783 155.871 95.3571 155.845C95.4167 155.826 95.4836 155.806 95.5241 155.794C95.5339 155.791 95.5422 155.788 95.5485 155.787C95.5674 155.781 95.5787 155.777 95.5843 155.775C96.7487 155.314 97.9374 154.93 99.1884 154.653C100.257 154.415 101.317 154.299 102.315 154.208C102.563 154.186 102.805 154.165 103.043 154.144C103.489 154.106 103.92 154.069 104.347 154.024C104.368 153.692 104.368 153.33 104.357 152.934C104.352 152.726 104.342 152.485 104.331 152.231C104.313 151.818 104.295 151.373 104.292 150.993C104.288 150.39 104.278 149.781 104.269 149.166C104.225 146.356 104.18 143.436 104.623 140.49C104.623 140.488 104.624 140.487 104.624 140.485C104.596 140.484 104.571 140.483 104.549 140.482C104.518 140.481 104.484 140.48 104.453 140.478L104.451 140.478C104.431 140.477 104.367 140.473 104.298 140.464C102.016 140.166 99.8805 139.927 97.6686 139.927C97.5813 139.927 97.4983 139.92 97.4576 139.917C97.4231 139.915 97.3814 139.911 97.3467 139.908C97.3349 139.907 97.3238 139.906 97.3142 139.905C97.2861 139.903 97.2603 139.901 97.2365 139.899C96.8461 140.067 96.3869 140.07 95.9759 139.866C95.2335 139.499 94.9296 138.599 95.2971 137.856C95.6441 137.155 96.3178 136.989 96.4939 136.95C96.7535 136.892 96.9999 136.889 97.1486 136.892C97.3131 136.895 97.469 136.907 97.5692 136.916C97.6616 136.924 97.6914 136.926 97.6926 136.927C100.086 136.928 102.363 137.187 104.64 137.484C104.646 137.484 104.655 137.484 104.665 137.485C104.696 137.486 104.731 137.487 104.772 137.488C104.803 137.49 104.838 137.491 104.879 137.492C105.054 137.499 105.291 137.508 105.53 137.525C105.755 137.54 106.039 137.566 106.289 137.615C106.401 137.637 106.599 137.68 106.802 137.77C106.901 137.814 107.086 137.906 107.269 138.078C107.461 138.257 107.742 138.617 107.763 139.153C107.785 139.732 107.687 140.331 107.622 140.736C107.61 140.81 107.599 140.877 107.59 140.937C107.187 143.615 107.226 146.235 107.268 149.031C107.278 149.668 107.287 150.314 107.292 150.972C107.294 151.325 107.309 151.647 107.324 151.998C107.335 152.258 107.348 152.534 107.356 152.852C107.375 153.526 107.371 154.282 107.253 155.028C107.248 155.058 107.246 155.075 107.242 155.117C107.24 155.137 107.237 155.163 107.234 155.199C107.233 155.202 107.233 155.205 107.233 155.208C107.225 155.282 107.202 155.506 107.116 155.742C107 156.057 106.78 156.379 106.419 156.609C106.111 156.805 105.801 156.867 105.609 156.894C104.816 157.003 104.009 157.072 103.248 157.138C103.023 157.157 102.802 157.176 102.587 157.196C101.616 157.284 100.712 157.387 99.8384 157.581C98.7828 157.816 97.7608 158.142 96.7321 158.548C96.7319 158.552 96.7317 158.556 96.7315 158.56C96.7272 158.656 96.7264 158.745 96.7264 158.817C96.7264 159.497 96.633 160.37 96.3483 161.131C96.2398 161.421 96.1477 161.646 96.0685 161.84C95.9257 162.189 95.8245 162.436 95.743 162.781C95.5718 163.508 95.4827 164.263 95.4025 165.096C95.3887 165.239 95.3751 165.385 95.3613 165.535C95.2972 166.225 95.2277 166.975 95.109 167.714C95.0916 167.823 95.0834 167.946 95.0686 168.169L95.067 168.193C95.0535 168.395 95.0333 168.697 94.972 169.002C94.9093 169.313 94.788 169.715 94.5158 170.098C94.2271 170.505 93.8251 170.81 93.3327 170.991C92.9392 171.136 92.3379 171.244 91.7702 171.318C91.1598 171.397 90.435 171.455 89.729 171.457C89.0495 171.46 88.2752 171.412 87.6223 171.223C87.2997 171.13 86.8884 170.97 86.5321 170.668C86.1343 170.331 85.8022 169.804 85.8022 169.123C85.8022 167.524 85.7898 165.913 85.7773 164.295C85.7446 160.075 85.7116 155.803 85.898 151.568C86.0408 148.322 86.0852 145.068 86.0852 141.804C86.0852 141.455 86.0718 141.138 86.0569 140.786C86.046 140.53 86.0343 140.256 86.0266 139.938C86.0106 139.284 86.0179 138.543 86.1441 137.81C86.1445 137.798 86.1449 137.781 86.1453 137.759C86.1455 137.753 86.1456 137.746 86.1457 137.739C86.1472 137.656 86.1499 137.511 86.162 137.366C86.1734 137.231 86.2019 136.954 86.3159 136.669C86.4218 136.404 86.7863 135.713 87.665 135.608C88.0209 135.566 88.4958 135.582 88.7352 135.589ZM97.0597 139.892C97.0597 139.892 97.061 139.892 97.0639 139.892L97.0597 139.892ZM104.246 154.914C104.246 154.914 104.247 154.908 104.249 154.898C104.247 154.91 104.247 154.915 104.246 154.914Z" fill="#B5B9BD"/>
<path fill-rule="evenodd" clip-rule="evenodd" d="M45.263 59.1265C46.0914 59.1265 46.763 59.798 46.763 60.6265C46.763 60.9848 46.6847 61.4514 46.6084 61.8221C46.526 62.2228 46.4116 62.6742 46.2848 63.0418C46.2261 63.2116 46.1388 63.4414 46.0175 63.6497C45.9643 63.741 45.8415 63.9408 45.6309 64.1214C45.4274 64.296 44.8268 64.6959 44.0575 64.401C43.4373 64.1632 43.2112 63.6381 43.1589 63.5126C43.0776 63.3172 43.0417 63.1316 43.0228 63.0112C42.9831 62.7574 42.9707 62.4579 42.9707 62.1404C42.9707 61.5775 43.2808 61.087 43.7394 60.8304C43.7408 60.8206 43.7422 60.811 43.7435 60.8016C43.7587 60.6942 43.7621 60.6397 43.7628 60.6282C43.7629 60.6259 43.763 60.6254 43.763 60.6265C43.763 59.798 44.4345 59.1265 45.263 59.1265Z" fill="#B5B9BD"/>
<path fill-rule="evenodd" clip-rule="evenodd" d="M61.9858 60.8877C62.7168 60.4979 63.6254 60.7744 64.0152 61.5054C64.5521 62.512 64.5878 63.4135 64.5878 64.1919C64.5878 65.0203 63.9163 65.6919 63.0878 65.6919C62.2594 65.6919 61.5878 65.0203 61.5878 64.1919C61.5878 63.5364 61.5462 63.2509 61.3682 62.9171C60.9783 62.1862 61.2549 61.2776 61.9858 60.8877Z" fill="#B5B9BD"/>
</svg>
