<svg width="32" height="32" viewBox="0 0 32 32" fill="none" xmlns="http://www.w3.org/2000/svg">
<g id="ic_personcircle_line">
<path id="Union" fill-rule="evenodd" clip-rule="evenodd" d="M15.9993 27.9998C22.6268 27.9998 27.9993 22.6273 27.9993 15.9998C27.9993 9.37242 22.6268 3.99984 15.9993 3.99984C9.37193 3.99984 3.99935 9.37242 3.99935 15.9998C3.99935 22.6273 9.37193 27.9998 15.9993 27.9998ZM29.3327 15.9998C29.3327 23.3636 23.3631 29.3332 15.9993 29.3332C8.63555 29.3332 2.66602 23.3636 2.66602 15.9998C2.66602 8.63604 8.63555 2.6665 15.9993 2.6665C23.3631 2.6665 29.3327 8.63604 29.3327 15.9998ZM15.9993 14.6665C18.2085 14.6665 19.9993 12.8756 19.9993 10.6665C19.9993 8.45737 18.2085 6.6665 15.9993 6.6665C13.7902 6.6665 11.9993 8.45737 11.9993 10.6665C11.9993 12.8756 13.7902 14.6665 15.9993 14.6665ZM20.9649 25.608C19.4237 26.3196 17.7258 26.682 16.0078 26.666C14.285 26.6814 12.5825 26.3157 11.0386 25.5988C9.49474 24.8819 8.15297 23.8338 7.12222 22.5397C6.83277 22.1824 6.67298 21.7475 6.66624 21.2989C6.6595 20.8502 6.80616 20.4113 7.08476 20.0464C8.12572 18.7598 9.47701 17.7225 11.028 17.0196C12.5789 16.3166 14.2855 15.9679 16.0078 16.0021C17.7305 15.9746 19.4358 16.3293 20.9844 17.0373C22.5329 17.7452 23.881 18.7863 24.9184 20.0757C25.1942 20.4416 25.3392 20.8801 25.3325 21.3281C25.3257 21.7761 25.1677 22.2105 24.881 22.569C23.8475 23.8554 22.5061 24.8963 20.9649 25.608Z" fill="#816DEC"/>
</g>
</svg>
