<svg width="18" height="18" viewBox="0 0 18 18" fill="none" xmlns="http://www.w3.org/2000/svg">
<g id="Frame" clip-path="url(#clip0_3233_4704)">
<path id="Vector (Stroke)" fill-rule="evenodd" clip-rule="evenodd" d="M7.27445 1.50017C6.13772 1.49141 5.02399 1.82038 4.07445 2.44536C3.1249 3.07034 2.38232 3.96319 1.94082 5.01072C1.49933 6.05825 1.37882 7.21328 1.59456 8.32938C1.81031 9.44549 2.35259 10.4724 3.15267 11.2799C3.95275 12.0875 4.97459 12.6392 6.08864 12.8653C7.20269 13.0914 8.35879 12.9816 9.41037 12.5499C10.4619 12.1181 11.3616 11.3838 11.9954 10.4401C12.6292 9.49641 12.9684 8.38578 12.9702 7.24901L13.7202 7.25019L12.9702 7.24786C12.9749 5.73122 12.3782 4.27457 11.3107 3.19718C10.2433 2.11978 8.79222 1.50953 7.2756 1.50018L7.27445 1.50017ZM14.4702 7.25195C14.4679 8.68557 14.0399 10.0862 13.2407 11.2764C12.4413 12.4667 11.3065 13.3929 9.98009 13.9375C8.65371 14.482 7.1955 14.6205 5.79031 14.3354C4.38513 14.0502 3.09626 13.3542 2.0871 12.3357C1.07795 11.3171 0.393948 10.0218 0.121824 8.61407C-0.150299 7.2063 0.00170708 5.74943 0.558572 4.42816C1.11544 3.10688 2.05208 1.98071 3.24976 1.1924C4.44744 0.404101 5.85222 -0.0108298 7.28601 0.000214889L7.28023 0.750193L7.28486 0.000206902C7.28524 0.000209286 7.28562 0.000212445 7.28601 0.000214889C9.19923 0.0123202 11.0297 0.782285 12.3763 2.14145C13.723 3.50075 14.476 5.33848 14.4702 7.25195Z" fill="#505458"/>
<path id="Vector (Stroke)_2" fill-rule="evenodd" clip-rule="evenodd" d="M11.7202 11.7094C12.0134 11.4168 12.4883 11.4172 12.7809 11.7104L17.7809 16.7204C18.0735 17.0136 18.073 17.4885 17.7798 17.7811C17.4866 18.0737 17.0117 18.0732 16.7191 17.78L11.7191 12.77C11.4265 12.4768 11.427 12.002 11.7202 11.7094Z" fill="#505458"/>
</g>
<defs>
<clipPath id="clip0_3233_4704">
<rect width="18" height="18" fill="white"/>
</clipPath>
</defs>
</svg>
