<svg width="36" height="37" viewBox="0 0 36 37" fill="none" xmlns="http://www.w3.org/2000/svg">
<g clip-path="url(#clip0_2314_28585)">
<path d="M15.75 18.2292C15.75 19.668 16.9253 20.8344 18.375 20.8344C19.8247 20.8344 21 19.668 21 18.2292C21 16.7904 19.8247 15.624 18.375 15.624C16.9253 15.624 15.75 16.7904 15.75 18.2292Z" fill="#505458"/>
<path d="M15.75 30.5115C15.75 31.9503 16.9253 33.1167 18.375 33.1167C19.8247 33.1167 21 31.9503 21 30.5115C21 29.0726 19.8247 27.9062 18.375 27.9062C16.9253 27.9062 15.75 29.0726 15.75 30.5115Z" fill="#505458"/>
<path d="M15.75 5.94798C15.75 7.38679 16.9253 8.55318 18.375 8.55318C19.8247 8.55318 21 7.38679 21 5.94798C21 4.50916 19.8247 3.34277 18.375 3.34277C16.9253 3.34277 15.75 4.50916 15.75 5.94798Z" fill="#505458"/>
</g>
<defs>
<clipPath id="clip0_2314_28585">
<rect width="29.7738" height="5.25" fill="white" transform="translate(21 3.34277) rotate(90)"/>
</clipPath>
</defs>
</svg>
