<svg width="471" height="76" viewBox="0 0 471 76" fill="none" xmlns="http://www.w3.org/2000/svg">
<path d="M8.74458 42.1701C14.0782 46.5704 21.1023 48.992 28.5306 48.992V37.9978C23.6529 37.9978 19.1065 36.4666 15.7385 33.6879C12.676 31.163 10.9899 27.8983 10.9899 24.496C10.9899 21.0937 12.676 17.829 15.7385 15.3041C19.1065 12.5254 23.6486 10.9942 28.5306 10.9942C33.4126 10.9942 37.9548 12.5254 41.3228 15.3041C44.0369 17.5408 45.6671 20.3581 46.0026 23.339C46.08 24.0057 46.6607 24.496 47.3317 24.496H55.672C56.4419 24.496 57.0656 23.8465 57.014 23.0766C56.6096 16.8741 53.5557 11.1447 48.3124 6.82189C42.9831 2.42164 35.959 0 28.5306 0C21.1023 0 14.0782 2.42164 8.74458 6.82189C3.10555 11.4716 0 17.7472 0 24.496C0 31.2448 3.10555 37.5204 8.74458 42.1701Z" fill="#5865F2"/>
<path d="M48.2766 33.8307C42.943 29.4304 35.9189 27.0088 28.4905 27.0088V38.003C33.3682 38.003 37.9147 39.5342 41.2826 42.3129C44.3452 44.8378 46.0313 48.1025 46.0313 51.5048C46.0313 54.9071 44.3452 58.1718 41.2826 60.6967C37.9147 63.4754 33.3725 65.0066 28.4905 65.0066C23.6085 65.0066 19.0663 63.4754 15.6984 60.6967C13.0359 58.4987 11.41 55.7416 11.0358 52.821C10.9368 52.064 10.2916 51.5048 9.53031 51.5048H1.53846C0.660994 51.5048 -0.0487236 52.2446 0.0157962 53.1178C0.471736 59.2472 3.51277 64.8991 8.70446 69.1789C14.0381 73.5792 21.0621 76.0008 28.4905 76.0008C35.9189 76.0008 42.943 73.5792 48.2766 69.1789C53.9156 64.5292 57.0212 58.2493 57.0212 51.5048C57.0212 44.7603 53.9156 38.4804 48.2766 33.8307Z" fill="#423FCC"/>
<path d="M417.676 72.7765V3.21987C417.676 2.43273 418.201 1.94238 419.035 1.94238H430.438C431.277 1.94238 431.797 2.43273 431.797 3.21987V61.378H468.832C469.671 61.378 470.191 61.8683 470.191 62.6555V72.7722C470.191 73.5593 469.666 74.0497 468.832 74.0497H419.031C418.192 74.0497 417.672 73.5593 417.672 72.7722L417.676 72.7765Z" fill="#423FCC"/>
<path d="M67.1797 37.996C67.1797 16.2314 81.9418 1.94238 102.192 1.94238C122.443 1.94238 137.205 16.2314 137.205 37.996C137.205 59.7607 122.443 74.0497 102.192 74.0497C81.9418 74.0497 67.1797 59.7607 67.1797 37.996ZM123.957 37.996C123.957 24.2748 115.535 14.4334 102.192 14.4334C88.8497 14.4334 80.4277 24.2748 80.4277 37.996C80.4277 51.7172 88.8497 61.5586 102.192 61.5586C115.535 61.5586 123.957 51.7172 123.957 37.996Z" fill="#5865F2"/>
<path d="M146.078 37.996C146.078 16.2314 160.84 1.94238 181.091 1.94238C201.341 1.94238 216.104 16.2314 216.104 37.996C216.104 59.7607 201.341 74.0497 181.091 74.0497C160.84 74.0497 146.078 59.7607 146.078 37.996ZM202.856 37.996C202.856 24.2748 194.434 14.4334 181.091 14.4334C167.748 14.4334 159.326 24.2748 159.326 37.996C159.326 51.7172 167.748 61.5586 181.091 61.5586C194.434 61.5586 202.856 51.7172 202.856 37.996Z" fill="#5865F2"/>
<path d="M226.402 70.9214V5.07683C226.402 4.33271 226.876 3.86816 227.633 3.86816H238.515C239.177 3.86816 239.65 4.14775 239.934 4.70692L263.97 43.9521L287.722 4.70692C288.006 4.14775 288.479 3.86816 289.141 3.86816H299.74C300.497 3.86816 300.97 4.33271 300.97 5.07683V70.9214C300.97 71.6655 300.497 72.1301 299.74 72.1301H289.898C289.141 72.1301 288.668 71.6655 288.668 70.9214V24.7941L268.323 58.2755C268.039 58.8347 267.566 59.1143 266.904 59.1143H260.469C259.806 59.1143 259.333 58.8347 259.049 58.2755L238.704 25.2586V70.9214C238.704 71.6655 238.231 72.1301 237.474 72.1301H227.633C226.876 72.1301 226.402 71.6655 226.402 70.9214Z" fill="#423FCC"/>
<path d="M386.82 72.7765V3.21987C386.82 2.43273 387.345 1.94238 388.18 1.94238H399.582C400.421 1.94238 400.942 2.43273 400.942 3.21987V72.7722C400.942 73.5593 400.417 74.0497 399.582 74.0497H388.18C387.341 74.0497 386.82 73.5593 386.82 72.7722V72.7765Z" fill="#5865F2"/>
<path d="M324.214 42.1701C329.547 46.5704 336.571 48.992 344 48.992V37.9978C339.122 37.9978 334.576 36.4666 331.208 33.6879C328.145 31.163 326.459 27.8983 326.459 24.496C326.459 21.0937 328.145 17.829 331.208 15.3041C334.576 12.5254 339.118 10.9942 344 10.9942C348.882 10.9942 353.424 12.5254 356.792 15.3041C359.506 17.5408 361.136 20.3581 361.472 23.339C361.549 24.0057 362.13 24.496 362.801 24.496H371.141C371.911 24.496 372.535 23.8465 372.483 23.0766C372.079 16.8741 369.025 11.1447 363.782 6.82189C358.448 2.42164 351.424 0 343.995 0C336.567 0 329.543 2.42164 324.209 6.82189C318.57 11.4716 315.465 17.7515 315.465 24.496C315.465 31.2405 318.57 37.5204 324.209 42.1701H324.214Z" fill="#5865F2"/>
<path d="M363.737 33.8307C358.403 29.4304 351.379 27.0088 343.951 27.0088V38.003C348.829 38.003 353.375 39.5342 356.743 42.3129C359.806 44.8378 361.492 48.1025 361.492 51.5048C361.492 54.9071 359.806 58.1718 356.743 60.6967C353.375 63.4754 348.833 65.0066 343.951 65.0066C339.069 65.0066 334.527 63.4754 331.159 60.6967C328.496 58.4987 326.871 55.7416 326.496 52.821C326.397 52.064 325.752 51.5048 324.991 51.5048H317.003C316.126 51.5048 315.416 52.2446 315.481 53.1178C315.937 59.2472 318.978 64.8991 324.169 69.1789C329.503 73.5792 336.527 76.0008 343.955 76.0008C351.384 76.0008 358.408 73.5792 363.741 69.1789C369.38 64.5292 372.486 58.2493 372.486 51.5048C372.486 44.7603 369.38 38.4804 363.741 33.8307H363.737Z" fill="#423FCC"/>
</svg>
