<svg width="158" height="33" viewBox="0 0 158 33" fill="none" xmlns="http://www.w3.org/2000/svg">
<path d="M9.91929 33C7.43562 33 5.34642 32.4961 3.65168 31.4882C1.98616 30.4516 0.78816 28.9686 0.0576703 27.0393C-0.0884277 26.6649 0.0430605 26.4346 0.452135 26.3482L4.44061 25.2683C4.76203 25.1819 4.99578 25.2971 5.14188 25.6139C5.66783 26.5065 6.31066 27.1401 7.07037 27.5144C7.8593 27.8599 8.73589 28.0327 9.70014 28.0327C10.6644 28.0327 11.4533 27.9175 12.0669 27.6872C12.7098 27.4568 13.0312 27.0249 13.0312 26.3914C13.0312 25.9018 12.7682 25.5131 12.2422 25.2251C11.7163 24.9084 10.8543 24.5772 9.65631 24.2317L8.56057 23.9293C5.84315 23.1806 3.90005 22.1584 2.73126 20.8626C1.5917 19.5668 1.02192 18.055 1.02192 16.3272C1.02192 15.0602 1.38716 13.9372 2.11765 12.9581C2.84814 11.9503 3.85622 11.1728 5.14188 10.6257C6.45676 10.0497 7.96157 9.76178 9.65631 9.76178C11.8478 9.76178 13.7032 10.2225 15.2226 11.144C16.7421 12.0654 17.8524 13.4764 18.5537 15.377C18.6998 15.7513 18.5829 15.9817 18.203 16.0681L14.2146 17.3207C13.8932 17.4359 13.6448 17.3351 13.4695 17.0183C13.0896 16.3272 12.5783 15.7801 11.9354 15.377C11.3218 14.945 10.5329 14.7291 9.56865 14.7291C8.83816 14.7291 8.20994 14.8586 7.68399 15.1178C7.15803 15.3482 6.89506 15.7513 6.89506 16.3272C6.89506 16.8456 7.15803 17.2775 7.68399 17.623C8.23916 17.9398 9.14497 18.2565 10.4014 18.5733L11.4533 18.8325C14.2292 19.5236 16.1577 20.4738 17.2388 21.6832C18.3491 22.8639 18.9043 24.3901 18.9043 26.2618C18.9043 27.6152 18.5098 28.8102 17.7209 29.8469C16.9612 30.8547 15.9093 31.6322 14.5652 32.1793C13.2211 32.7264 11.6725 33 9.91929 33Z" fill="url(#paint0_radial_1888_27994)"/>
<path d="M33.9053 33C31.48 33 29.3616 32.5105 27.55 31.5314C25.7676 30.5236 24.3797 29.1414 23.3862 27.3848C22.3927 25.6283 21.896 23.627 21.896 21.3809C21.896 19.106 22.3927 17.1047 23.3862 15.377C24.3797 13.6204 25.7676 12.2526 27.55 11.2736C29.3616 10.2657 31.48 9.76178 33.9053 9.76178C36.3305 9.76178 38.4343 10.2657 40.2167 11.2736C42.0283 12.2526 43.4309 13.6204 44.4243 15.377C45.4178 17.1047 45.9145 19.106 45.9145 21.3809C45.9145 23.627 45.4178 25.6283 44.4243 27.3848C43.4309 29.1414 42.0283 30.5236 40.2167 31.5314C38.4343 32.5105 36.3305 33 33.9053 33ZM33.9053 27.9031C35.7169 27.9031 37.1925 27.2984 38.332 26.089C39.4716 24.8796 40.0414 23.3102 40.0414 21.3809C40.0414 19.4516 39.4716 17.8822 38.332 16.6728C37.1925 15.4633 35.7169 14.8586 33.9053 14.8586C32.0937 14.8586 30.6181 15.4633 29.4785 16.6728C28.3389 17.8822 27.7692 19.4516 27.7692 21.3809C27.7692 23.3102 28.3389 24.8796 29.4785 26.089C30.6181 27.2984 32.0937 27.9031 33.9053 27.9031Z" fill="url(#paint1_radial_1888_27994)"/>
<path d="M61.2558 33C58.8306 33 56.7122 32.5105 54.9006 31.5314C53.1182 30.5236 51.7302 29.1414 50.7368 27.3848C49.7433 25.6283 49.2466 23.627 49.2466 21.3809C49.2466 19.106 49.7433 17.1047 50.7368 15.377C51.7302 13.6204 53.1182 12.2526 54.9006 11.2736C56.7122 10.2657 58.8306 9.76178 61.2558 9.76178C63.6811 9.76178 65.7849 10.2657 67.5673 11.2736C69.3789 12.2526 70.7814 13.6204 71.7749 15.377C72.7684 17.1047 73.2651 19.106 73.2651 21.3809C73.2651 23.627 72.7684 25.6283 71.7749 27.3848C70.7814 29.1414 69.3789 30.5236 67.5673 31.5314C65.7849 32.5105 63.6811 33 61.2558 33ZM61.2558 27.9031C63.0675 27.9031 64.543 27.2984 65.6826 26.089C66.8222 24.8796 67.392 23.3102 67.392 21.3809C67.392 19.4516 66.8222 17.8822 65.6826 16.6728C64.543 15.4633 63.0675 14.8586 61.2558 14.8586C59.4442 14.8586 57.9686 15.4633 56.8291 16.6728C55.6895 17.8822 55.1197 19.4516 55.1197 21.3809C55.1197 23.3102 55.6895 24.8796 56.8291 26.089C57.9686 27.2984 59.4442 27.9031 61.2558 27.9031Z" fill="url(#paint2_radial_1888_27994)"/>
<path d="M78.4818 32.5681C78.102 32.5681 77.912 32.3809 77.912 32.0065V10.7552C77.912 10.3809 78.102 10.1937 78.4818 10.1937H82.6018C83.0109 10.1937 83.2154 10.3809 83.2154 10.7552L83.3469 13.4332C84.1358 12.2238 85.1731 11.3168 86.4588 10.712C87.7737 10.0785 89.1324 9.76178 90.5349 9.76178C92.2589 9.76178 93.7198 10.1217 94.9178 10.8416C96.1451 11.5327 97.0655 12.5406 97.6791 13.8652C98.4972 12.5118 99.6076 11.4895 101.01 10.7984C102.413 10.1073 103.888 9.76178 105.437 9.76178C107.921 9.76178 109.864 10.4961 111.266 11.9647C112.698 13.4332 113.414 15.449 113.414 18.0118V32.0065C113.414 32.3809 113.224 32.5681 112.844 32.5681H108.286C107.906 32.5681 107.716 32.3809 107.716 32.0065V20.301C107.716 16.6728 106.372 14.8586 103.684 14.8586C102.34 14.8586 101.142 15.377 100.09 16.4136C99.0378 17.4503 98.5119 19.034 98.5119 21.1649V32.0065C98.5119 32.3809 98.3219 32.5681 97.9421 32.5681H93.3838C93.004 32.5681 92.814 32.3809 92.814 32.0065V20.301C92.814 16.6728 91.4699 14.8586 88.7817 14.8586C87.4376 14.8586 86.2396 15.377 85.1877 16.4136C84.1358 17.4503 83.6099 19.034 83.6099 21.1649V32.0065C83.6099 32.3809 83.4199 32.5681 83.0401 32.5681H78.4818Z" fill="url(#paint3_radial_1888_27994)"/>
<path d="M127.368 33C124.885 33 122.796 32.4961 121.101 31.4882C119.435 30.4516 118.237 28.9686 117.507 27.0393C117.361 26.6649 117.492 26.4346 117.901 26.3482L121.89 25.2683C122.211 25.1819 122.445 25.2971 122.591 25.6139C123.117 26.5065 123.76 27.1401 124.519 27.5144C125.308 27.8599 126.185 28.0327 127.149 28.0327C128.113 28.0327 128.902 27.9175 129.516 27.6872C130.159 27.4568 130.48 27.0249 130.48 26.3914C130.48 25.9018 130.217 25.5131 129.691 25.2251C129.165 24.9084 128.303 24.5772 127.105 24.2317L126.01 23.9293C123.292 23.1806 121.349 22.1584 120.18 20.8626C119.041 19.5668 118.471 18.055 118.471 16.3272C118.471 15.0602 118.836 13.9372 119.567 12.9581C120.297 11.9503 121.305 11.1728 122.591 10.6257C123.906 10.0497 125.411 9.76178 127.105 9.76178C129.297 9.76178 131.152 10.2225 132.672 11.144C134.191 12.0654 135.301 13.4764 136.003 15.377C136.149 15.7513 136.032 15.9817 135.652 16.0681L131.664 17.3207C131.342 17.4359 131.094 17.3351 130.919 17.0183C130.539 16.3272 130.027 15.7801 129.385 15.377C128.771 14.945 127.982 14.7291 127.018 14.7291C126.287 14.7291 125.659 14.8586 125.133 15.1178C124.607 15.3482 124.344 15.7513 124.344 16.3272C124.344 16.8456 124.607 17.2775 125.133 17.623C125.688 17.9398 126.594 18.2565 127.85 18.5733L128.902 18.8325C131.678 19.5236 133.607 20.4738 134.688 21.6832C135.798 22.8639 136.353 24.3901 136.353 26.2618C136.353 27.6152 135.959 28.8102 135.17 29.8469C134.41 30.8547 133.358 31.6322 132.014 32.1793C130.67 32.7264 129.122 33 127.368 33Z" fill="url(#paint4_radial_1888_27994)"/>
<path d="M143.509 6.21989C142.574 6.21989 141.785 5.93194 141.142 5.35602C140.499 4.7801 140.178 4.03141 140.178 3.10995C140.178 2.18848 140.499 1.43979 141.142 0.863874C141.785 0.287958 142.574 0 143.509 0C144.444 0 145.233 0.287958 145.876 0.863874C146.519 1.43979 146.84 2.18848 146.84 3.10995C146.84 4.03141 146.519 4.7801 145.876 5.35602C145.233 5.93194 144.444 6.21989 143.509 6.21989ZM141.23 32.5681C140.85 32.5681 140.66 32.3809 140.66 32.0065V10.7552C140.66 10.3809 140.85 10.1937 141.23 10.1937H145.788C146.168 10.1937 146.358 10.3809 146.358 10.7552V32.0065C146.358 32.3809 146.168 32.5681 145.788 32.5681H141.23Z" fill="url(#paint5_radial_1888_27994)"/>
<path d="M152.872 32.5681C152.492 32.5681 152.302 32.3809 152.302 32.0065V0.734291C152.302 0.359946 152.492 0.172773 152.872 0.172773H157.43C157.81 0.172773 158 0.359946 158 0.734291V32.0065C158 32.3809 157.81 32.5681 157.43 32.5681H152.872Z" fill="url(#paint6_radial_1888_27994)"/>
<defs>
<radialGradient id="paint0_radial_1888_27994" cx="0" cy="0" r="1" gradientUnits="userSpaceOnUse" gradientTransform="translate(80.1449 15.8304) rotate(90) scale(28.6158 81.3583)">
<stop stop-color="#D143C3"/>
<stop offset="0.515" stop-color="#3A95E9"/>
<stop offset="1" stop-color="#8A2AC5"/>
</radialGradient>
<radialGradient id="paint1_radial_1888_27994" cx="0" cy="0" r="1" gradientUnits="userSpaceOnUse" gradientTransform="translate(80.1449 15.8304) rotate(90) scale(28.6158 81.3583)">
<stop stop-color="#D143C3"/>
<stop offset="0.515" stop-color="#3A95E9"/>
<stop offset="1" stop-color="#8A2AC5"/>
</radialGradient>
<radialGradient id="paint2_radial_1888_27994" cx="0" cy="0" r="1" gradientUnits="userSpaceOnUse" gradientTransform="translate(80.1449 15.8304) rotate(90) scale(28.6158 81.3583)">
<stop stop-color="#D143C3"/>
<stop offset="0.515" stop-color="#3A95E9"/>
<stop offset="1" stop-color="#8A2AC5"/>
</radialGradient>
<radialGradient id="paint3_radial_1888_27994" cx="0" cy="0" r="1" gradientUnits="userSpaceOnUse" gradientTransform="translate(80.1449 15.8304) rotate(90) scale(28.6158 81.3583)">
<stop stop-color="#D143C3"/>
<stop offset="0.515" stop-color="#3A95E9"/>
<stop offset="1" stop-color="#8A2AC5"/>
</radialGradient>
<radialGradient id="paint4_radial_1888_27994" cx="0" cy="0" r="1" gradientUnits="userSpaceOnUse" gradientTransform="translate(80.1449 15.8304) rotate(90) scale(28.6158 81.3583)">
<stop stop-color="#D143C3"/>
<stop offset="0.515" stop-color="#3A95E9"/>
<stop offset="1" stop-color="#8A2AC5"/>
</radialGradient>
<radialGradient id="paint5_radial_1888_27994" cx="0" cy="0" r="1" gradientUnits="userSpaceOnUse" gradientTransform="translate(80.1449 15.8304) rotate(90) scale(28.6158 81.3583)">
<stop stop-color="#D143C3"/>
<stop offset="0.515" stop-color="#3A95E9"/>
<stop offset="1" stop-color="#8A2AC5"/>
</radialGradient>
<radialGradient id="paint6_radial_1888_27994" cx="0" cy="0" r="1" gradientUnits="userSpaceOnUse" gradientTransform="translate(80.1449 15.8304) rotate(90) scale(28.6158 81.3583)">
<stop stop-color="#D143C3"/>
<stop offset="0.515" stop-color="#3A95E9"/>
<stop offset="1" stop-color="#8A2AC5"/>
</radialGradient>
</defs>
</svg>
